<?xml version="1.0" standalone="no"?>
<!DOCTYPE svg PUBLIC "-//W3C//DTD SVG 20010904//EN"
 "http://www.w3.org/TR/2001/REC-SVG-20010904/DTD/svg10.dtd">
<svg version="1.0" xmlns="http://www.w3.org/2000/svg"
 width="4500.000000pt" height="4500.000000pt" viewBox="0 0 4500.000000 4500.000000"
 preserveAspectRatio="xMidYMid meet">

<g transform="translate(0.000000,4500.000000) scale(0.100000,-0.100000)"
fill="#000000" stroke="none">
<path d="M22366 33409 c-305 -32 -607 -198 -795 -438 -199 -252 -282 -503
-268 -811 21 -463 299 -855 736 -1041 250 -105 566 -118 830 -33 298 97 562
323 701 601 86 172 122 329 123 528 1 213 -33 356 -126 540 -185 366 -541 612
-947 655 -107 11 -142 11 -254 -1z"/>
<path d="M21635 30715 c-85 -23 -135 -46 -615 -283 l-465 -231 256 0 c220 -1
267 -4 333 -21 97 -24 215 -86 285 -147 l55 -48 -1884 -5 -1883 -5 546 -310
c301 -170 547 -313 547 -316 0 -3 -206 -106 -457 -229 -252 -123 -480 -238
-508 -255 -97 -61 -176 -168 -205 -274 -26 -99 -9 -244 42 -346 24 -47 630
-661 698 -706 96 -64 272 -89 386 -54 27 8 50 15 52 15 1 0 2 -403 2 -895 l0
-895 2435 0 2435 0 0 21 c0 11 -57 604 -126 1317 -69 713 -151 1560 -182 1882
-63 650 -64 680 -14 816 81 223 250 376 484 440 49 14 120 19 316 23 l252 6
-483 237 c-349 172 -505 243 -562 258 -75 19 -109 20 -884 19 -644 0 -816 -3
-856 -14z"/>
<path d="M26180 28877 l0 -471 -99 -100 c-101 -103 -136 -157 -165 -255 -54
-184 30 -406 194 -511 146 -94 363 -94 507 -2 27 17 190 174 364 349 298 301
317 322 349 392 42 95 53 222 25 317 -36 125 -131 239 -245 296 -30 15 -252
124 -492 242 l-438 215 0 -472z"/>
<path d="M17700 26353 c-71 -12 -179 -47 -243 -79 -147 -74 -257 -172 -346
-309 -101 -154 -141 -311 -141 -551 l0 -144 -477 0 c-263 0 -526 -5 -585 -10
-370 -35 -699 -231 -901 -536 -110 -166 -174 -342 -197 -539 -14 -124 -14
-5986 0 -6110 30 -258 142 -504 320 -697 117 -128 319 -259 490 -318 176 -60
199 -62 797 -67 l552 -5 4 1344 3 1343 22 82 c88 332 347 580 674 647 70 14
537 16 4828 16 4274 0 4759 -2 4828 -16 86 -17 204 -65 288 -116 140 -84 280
-253 344 -412 68 -168 64 -73 67 -1549 l4 -1339 547 5 c507 4 554 6 640 25
131 29 183 47 297 103 288 141 516 404 614 707 60 184 56 -42 56 3307 0 2968
-1 3083 -19 3165 -52 239 -161 437 -335 611 -207 206 -453 321 -749 349 -59 5
-322 10 -584 10 l-478 0 0 160 c0 107 -5 186 -16 238 -69 337 -338 606 -676
677 -53 12 -151 15 -419 15 l-349 0 0 -540 0 -540 -4065 0 -4065 0 0 540 0
540 -352 -1 c-194 -1 -364 -4 -378 -6z m-1000 -2974 c90 -21 172 -69 251 -148
114 -114 159 -222 159 -381 0 -159 -45 -267 -159 -381 -114 -114 -222 -159
-381 -159 -159 0 -267 45 -381 159 -79 80 -119 146 -144 242 -17 63 -19 204
-4 269 41 178 219 357 395 399 54 12 210 13 264 0z"/>
<path d="M18537 19423 c-1056 -2167 -1447 -2973 -1447 -2979 0 -2 797 -4 1770
-4 l1770 0 -5 -22 c-6 -29 -55 -304 -55 -312 0 -3 869 -6 1931 -6 l1931 0 -6
28 c-5 22 -486 2685 -653 3615 l-48 267 -2451 0 -2450 0 -287 -587z"/>
<path d="M9470 13385 l0 -1825 390 0 390 0 0 589 0 589 528 5 c554 5 580 7
771 57 422 108 748 400 876 782 120 361 70 759 -135 1062 -166 246 -433 430
-745 511 -204 53 -253 55 -1201 55 l-874 0 0 -1825z m1732 1091 c156 -30 277
-93 362 -187 79 -87 115 -188 116 -315 1 -235 -154 -411 -425 -486 -76 -21
-103 -22 -542 -26 l-463 -3 0 515 0 516 439 0 c337 0 456 -3 513 -14z"/>
<path d="M12830 13385 l0 -1825 390 0 390 0 0 590 0 590 292 -2 293 -3 413
-587 414 -588 444 0 c244 0 444 2 444 5 0 2 -198 286 -440 629 -242 344 -440
629 -440 634 0 4 40 25 90 46 195 82 402 250 518 419 259 376 279 898 52 1287
-151 259 -391 445 -709 550 -230 76 -196 74 -1228 78 l-923 3 0 -1826z m1785
1082 c33 -10 97 -35 143 -57 312 -149 380 -540 133 -773 -78 -73 -158 -116
-276 -149 -76 -21 -104 -22 -542 -26 l-463 -3 0 516 0 516 473 -3 c411 -3 480
-6 532 -21z"/>
<path d="M16180 13385 l0 -1825 390 0 390 0 0 1825 0 1825 -390 0 -390 0 0
-1825z"/>
<path d="M17300 13385 l0 -1825 390 0 390 0 2 1177 3 1178 876 -1175 876
-1175 396 -3 397 -2 0 1825 0 1825 -395 0 -395 0 -2 -1174 -3 -1174 -875 1174
-875 1174 -392 0 -393 0 0 -1825z"/>
<path d="M20970 14855 l0 -355 570 0 570 0 0 -1470 0 -1470 390 0 390 0 0
1470 0 1470 570 0 570 0 0 355 0 355 -1530 0 -1530 0 0 -355z"/>
<path d="M24370 13385 l0 -1825 1405 0 1405 0 0 355 0 355 -1010 0 -1010 0 0
400 0 400 915 0 915 0 0 350 0 350 -915 0 -915 0 0 365 0 365 1010 0 1010 0 0
355 0 355 -1405 0 -1405 0 0 -1825z"/>
<path d="M28995 15178 c-9 -18 -343 -838 -744 -1823 l-729 -1790 435 -3 c240
-1 438 0 440 2 2 2 55 129 118 283 l114 278 814 3 814 2 115 -282 115 -283
443 -3 c419 -2 442 -1 436 15 -4 10 -338 831 -744 1826 l-736 1807 -438 0
-438 0 -15 -32z m724 -1726 c143 -353 261 -645 261 -647 0 -3 -241 -5 -536 -5
-506 0 -536 1 -531 18 2 9 118 296 257 637 139 341 257 631 262 645 8 20 11
22 18 10 4 -8 125 -304 269 -658z"/>
<path d="M31710 13385 l0 -1825 390 0 390 0 0 1132 c0 688 4 1128 9 1123 5 -6
260 -467 566 -1025 306 -558 558 -1016 559 -1017 1 -2 254 458 562 1021 l559
1024 3 -1129 2 -1129 395 0 395 0 0 1825 0 1825 -396 -2 -395 -3 -557 -1019
c-306 -560 -561 -1019 -567 -1019 -5 1 -261 460 -570 1022 l-560 1021 -392 0
-393 0 0 -1825z"/>
</g>
</svg>
